<svg xmlns="http://www.w3.org/2000/svg" viewBox="0 0 32 32" fill="#00ffc6" id="Bounding-Box--Streamline-Phosphor" height="32" width="32">
  <desc>
    Bounding Box Streamline Icon: https://streamlinehq.com
  </desc>
  <path d="M29.0666625 10.7733375c1.4432625 -0.0000625 2.6133375 -1.170075 2.6133375 -2.6133375V2.9333375c0 -1.4433125 -1.170025 -2.6133375 -2.6133375 -2.6133375H23.84c-1.4433 0 -2.6133375 1.170025 -2.6133375 2.6133375V4.24H10.7733375V2.9333375c0 -1.4432625 -1.170075 -2.613275 -2.6133375 -2.6133375H2.9333375C1.4899875 0.3199375 0.32 1.4899875 0.32 2.9333375V8.16c0 1.4433 1.170025 2.6133375 2.6133375 2.6133375H4.24v10.453325H2.9333375C1.4899875 21.2266 0.32 22.39665 0.32 23.84v5.2266625c0 1.44335 1.1699875 2.6134 2.6133375 2.6133375H8.16c1.4432625 -0.0000625 2.6133375 -1.170075 2.6133375 -2.6133375V27.76h10.453325v1.3066625c0 1.44335 1.1699875 2.6134 2.6133375 2.6133375h5.2266625c1.44335 0.0000625 2.6133375 -1.1699875 2.6133375 -2.6133375V23.84c0 -1.4433 -1.170025 -2.6133375 -2.6133375 -2.6133375H27.76V10.7733375Zm-5.2266625 -7.84h5.2266625V8.16H23.84Zm-20.9066625 0H8.16v2.597c-0.0021625 0.010775 -0.0021625 0.021875 0 0.0326625V8.16H2.9333375ZM8.16 29.0666625H2.9333375V23.84H8.16v2.597c-0.0021625 0.0107875 -0.0021625 0.0218875 0 0.0326625v2.597Zm20.9066625 0H23.84V23.84h5.2266625Zm-3.92 -7.84H23.84c-1.4433 0 -2.6133375 1.1700375 -2.6133375 2.6133375v1.3066625H10.7733375V23.84c0 -1.4433 -1.1700375 -2.6133375 -2.6133375 -2.6133375H6.8533375V10.7733375H8.16c1.4432625 -0.0000625 2.6133375 -1.170075 2.6133375 -2.6133375V6.8533375h10.453325V8.16c0 1.44335 1.1699875 2.6134 2.6133375 2.6133375h1.3066625Z" stroke-width="0.125"></path>
</svg>