<svg xmlns="http://www.w3.org/2000/svg" viewBox="0 0 32 32" fill="#3dff03" id="Heartbeat--Streamline-Phosphor" height="32" width="32">
  <desc>
    Heartbeat Streamline Icon: https://streamlinehq.com
  </desc>
  <path d="M8.16 17.120375h-5.6c-0.862175 0 -1.4010375 -0.9333375 -0.96995 -1.68 0.2000625 -0.346525 0.569825 -0.5599875 0.96995 -0.56h5.0008l1.9068 -2.8616c0.4432125 -0.666 1.4215875 -0.666 1.8648 0l3.5476 5.32 1.3076 -1.96c0.2079 -0.3116125 0.5578125 -0.49865 0.9324 -0.4984h3.36c0.862175 0 1.4010375 0.933325 0.96995 1.68 -0.200075 0.346525 -0.5698125 0.56 -0.96995 0.56h-2.7608l-1.9068 2.8616c-0.4432125 0.6659875 -1.4215875 0.6659875 -1.8648 0L10.4 14.659175l-1.3076 1.96c-0.20725 0.3126625 -0.557275 0.5008125 -0.9324 0.5012ZM23 2.560375c-2.891 0 -5.4222 1.2432 -7 3.3446C14.4222 3.803575 11.891 2.560375 9 2.560375c-4.7915875 0.0054 -8.6746 3.8884 -8.68 8.68v0.315c0.0269375 0.862175 0.9771125 1.3718625 1.7103125 0.9174375 0.340275 -0.2108875 0.5421875 -0.5873 0.5296875 -0.9874375v-0.245C2.564625 7.685575 5.4452 4.805 9 4.800375c2.723 0 5.0092 1.4504 5.964 3.78 0.3276 0.7975125 1.395675 0.9413125 1.92255 0.25885 0.0611625 -0.079225 0.111425 -0.166275 0.14945 -0.25885 0.9548 -2.3338 3.241 -3.78 5.964 -3.78 3.5548 0.004625 6.435375 2.8852 6.44 6.44 0 7.5054 -10.8864 14.301 -13.44 15.792 -1.5162 -0.8834 -5.9682 -3.64 -9.3352 -7.3094 -0.58305 -0.6358625 -1.6357875 -0.4021 -1.894925 0.4207625 -0.120275 0.3818875 -0.0276625 0.798925 0.242925 1.0940375 4.3638 4.76 10.2102 7.9352 10.4566 8.0682 0.3312875 0.1782125 0.7299125 0.1782125 1.0612 0C17.1494 28.972775 31.68 21.040375 31.68 11.240375c-0.0054 -4.7916 -3.8884125 -8.6746 -8.68 -8.68Z" stroke-width="0.125"></path>
</svg>