<svg xmlns="http://www.w3.org/2000/svg" fill="none" viewBox="0 0 32 32" id="Online-Medical-Service-Monitor--Streamline-Core-Remix" height="32" width="32">
  <desc>
    Online Medical Service Monitor Streamline Icon: https://streamlinehq.com
  </desc>
  <g id="Free Remix/Health/online-medical-service-monitor">
    <path id="Union" fill="#09ff00" fill-rule="evenodd" d="M3.714285714285714 22.57142857142857v-18.857142857142858h24.57142857142857v18.857142857142858H3.714285714285714ZM3.4285714285714284 0.8571428571428571c-0.6674971428571429 0 -1.3347542857142856 0.22873371428571426 -1.8387245714285714 0.732704C1.0858765714285714 2.0938171428571426 0.8571428571428571 2.7610742857142854 0.8571428571428571 3.4285714285714284V22.857142857142854c0 0.6674285714285714 0.22873371428571426 1.3348571428571427 0.732704 1.8386285714285713 0.5039702857142857 0.504 1.1712274285714284 0.7327999999999999 1.8387245714285714 0.7327999999999999h8.483382857142857l-1.1428571428571428 2.8571428571428568H9.142857142857142c-0.7889828571428571 0 -1.4285714285714284 0.6395428571428571 -1.4285714285714284 1.4285714285714284s0.6395885714285714 1.4285714285714284 1.4285714285714284 1.4285714285714284h13.714285714285714c0.7890285714285714 0 1.4285714285714284 -0.6395428571428571 1.4285714285714284 -1.4285714285714284s-0.6395428571428571 -1.4285714285714284 -1.4285714285714284 -1.4285714285714284h-1.62624l-1.1428571428571428 -2.8571428571428568H28.57142857142857c0.6674285714285714 0 1.3348571428571427 -0.22879999999999998 1.8386285714285713 -0.7327999999999999 0.504 -0.5037714285714285 0.7327999999999999 -1.1711999999999998 0.7327999999999999 -1.8386285714285713V3.4285714285714284c0 -0.6674971428571429 -0.22879999999999998 -1.3347542857142856 -0.7327999999999999 -1.8387245714285714C29.906285714285712 1.0858765714285714 29.238857142857142 0.8571428571428571 28.57142857142857 0.8571428571428571h-25.142857142857142Zm9.90128 6.546057142857142c0 -0.4593828571428571 0.3723885714285714 -0.8317714285714285 0.8317485714285714 -0.8317714285714285h3.6768c0.45936 0 0.8317485714285714 0.3723885714285714 0.8317485714285714 0.8317714285714285v3.069531428571428H21.739657142857144c0.4593828571428571 0 0.8317714285714285 0.3724114285714285 0.8317714285714285 0.8317714285714285v3.6768c0 0.45936 -0.3723885714285714 0.8317485714285714 -0.8317714285714285 0.8317485714285714H18.67014857142857V18.882514285714286c0 0.4593828571428571 -0.3723885714285714 0.8317714285714285 -0.8317485714285714 0.8317714285714285H14.1616c-0.45936 0 -0.8317485714285714 -0.3723885714285714 -0.8317485714285714 -0.8317714285714285V15.813051428571429H10.260342857142858c-0.4593828571428571 0 -0.8317714285714285 -0.3723885714285714 -0.8317714285714285 -0.8317485714285714v-3.6768c0 -0.45936 0.3723885714285714 -0.8317714285714285 0.8317714285714285 -0.8317714285714285h3.0695085714285715V7.4032Z" clip-rule="evenodd" stroke-width="2.2857"></path>
  </g>
</svg>