<svg xmlns="http://www.w3.org/2000/svg" viewBox="0 0 32 32" fill="#ffffff" id="Person-Simple-Tai-Chi--Streamline-Phosphor" height="32" width="32">
  <desc>
    Person Simple Tai Chi Streamline Icon: https://streamlinehq.com
  </desc>
  <path d="M16 9.9668375c3.713075 0 6.0337375 -4.0195125 4.1772 -7.235125 -1.8565375 -3.2156125 -6.4978625 -3.2156125 -8.3544 0 -0.42335 0.73325 -0.6462125 1.565025 -0.6462125 2.4117 0 2.6639 2.1595125 4.823425 4.8234125 4.823425Zm0 -7.235125c1.8565375 0 3.0168625 2.00975 2.0886 3.6175625 -0.9282625 1.6078 -3.2489375 1.6078 -4.1772 0 -0.211675 -0.366625 -0.3231125 -0.7825125 -0.3231125 -1.2058625 0 -1.33195 1.0797625 -2.4117 2.4117125 -2.4117Zm14.47025 10.8526875c0 0.66595 -0.5399 1.205825 -1.20585 1.20585h-12.05855v4.0275625l7.7099375 3.3055375c0.4432875 0.1898875 0.730825 0.6256375 0.73105 1.1078875v7.235125c-0.00095 0.9282625 -1.0064125 1.5074125 -1.80985 1.0424625 -0.3721125 -0.21535 -0.601425 -0.612525 -0.6018625 -1.0424625v-6.4392625l-7.0014875 -3.001075L4.747875 31.37075c-0.6904 0.6207875 -1.7939125 0.2613875 -1.986325 -0.6469 -0.0893 -0.4215375 0.053075 -0.8587 0.3734875 -1.1468l11.6591125 -10.4999875V14.79025H2.7356c-0.9282625 -0.0009375 -1.5074125 -1.0064125 -1.0424625 -1.8098375 0.21535 -0.3721125 0.612525 -0.601425 1.0424625 -0.6018625h26.5288c0.66595 0.000025 1.20585 0.5399 1.20585 1.20585Z" stroke-width="0.125"></path>
</svg>