<svg xmlns="http://www.w3.org/2000/svg" viewBox="0 0 32 32" fill="#ff0303" id="Sword--Streamline-Phosphor" height="32" width="32">
  <desc>
    Sword Streamline Icon: https://streamlinehq.com
  </desc>
  <path d="M30.4257 0.3204h-10.0343125c-0.3893 -0.00005 -0.75655 0.1806875 -0.994025 0.4891625L9.36305 13.85575 7.8484875 12.344325c-0.979875 -0.980975 -2.56975 -0.980975 -3.5496375 0l-1.9896125 1.9911875c-0.9799375 0.9797125 -0.9799375 2.5683625 0 3.548075l3.135725 3.135725 -4.3900125 4.3900125c-0.9799375 0.9797 -0.9799375 2.5683625 0 3.5480625l1.9896125 1.98805c0.979525 0.9788875 2.566975 0.9788875 3.5465 0l4.3900125 -4.3900125 3.135725 3.135725c0.9798875 0.980975 2.5697625 0.980975 3.54965 0l1.9896125 -1.9911875c0.979925 -0.9797 0.979925 -2.5683625 0 -3.5480625l-1.511425 -1.511425 13.0461875 -10.0343125c0.30935 -0.23815 0.4901875 -0.6067625 0.489175 -0.9971625V1.5746875c0 -0.692725 -0.561575 -1.2543 -1.2543 -1.2543ZM4.82095 29.16905 2.8313375 27.181l4.3900125 -4.3900125 1.98805 1.98805Zm11.070675 -1.2542875 -11.806 -11.804425 1.9911875 -1.9927625 11.806 11.807575Zm13.2797875 -16.9235 -12.8157 9.8587125 -1.7152375 -1.7152375 7.8926125 -7.8926125c0.682525 -0.6831375 0.3696 -1.84895 -0.563275 -2.0984625 -0.43295 -0.1158 -0.8947875 0.0081625 -1.2115375 0.3252l-7.892625 7.89105 -1.713675 -1.7152375L21.009125 2.828975h8.1622875Z" stroke-width="0.125"></path>
</svg>