<svg xmlns="http://www.w3.org/2000/svg" fill="none" viewBox="0 0 32 32" id="Zone-Person-Urgent--Streamline-Outlined-Material" height="32" width="32">
  <desc>
    Zone Person Urgent Streamline Icon: https://streamlinehq.com
  </desc>
  <path fill="#ffe900" d="M1.3112 8.399999999999999V4c0 -0.5333333333333333 0.19999999999999998 -1 0.6 -1.4 0.39999999999999997 -0.39999999999999997 0.8666666666666667 -0.6 1.4 -0.6h4.3999999999999995v2h-4.3999999999999995v4.3999999999999995h-2Zm6.3999999999999995 20.266666666666666h-4.3999999999999995c-0.5333333333333333 0 -1 -0.19999999999999998 -1.4 -0.6 -0.39999999999999997 -0.39999999999999997 -0.6 -0.8666666666666667 -0.6 -1.4v-4.3999999999999995h2V26.666666666666664h4.3999999999999995v2Zm18.266666666666666 -20.266666666666666V4h-4.3999999999999995V2h4.3999999999999995c0.5333333333333333 0 1 0.19999999999999998 1.4 0.6 0.39999999999999997 0.39999999999999997 0.6 0.8666666666666667 0.6 1.4v4.3999999999999995h-2Zm-9.330666666666666 3.1333333333333333c-0.6684666666666665 0 -1.2415333333333334 -0.238 -1.7193333333333334 -0.714 -0.4778 -0.476 -0.7166666666666666 -1.0482 -0.7166666666666666 -1.7166666666666668 0 -0.6684666666666665 0.238 -1.2415333333333334 0.714 -1.7193333333333334 0.476 -0.4778 1.0482 -0.7166666666666666 1.7166666666666668 -0.7166666666666666 0.6684666666666665 0 1.2415333333333334 0.238 1.7193333333333334 0.714 0.4778 0.476 0.7166666666666666 1.0482 0.7166666666666666 1.7166666666666668 0 0.6684666666666665 -0.238 1.2415333333333334 -0.714 1.7193333333333334 -0.476 0.4778 -1.0482 0.7166666666666666 -1.7166666666666668 0.7166666666666666Zm-6.102666666666666 11.966666666666665 1.5333333333333332 -7.833333333333333 -3.333333333333333 1.5666666666666667v4.466666666666667h-2V15.866666666666667l5.466666666666666 -2.3c0.7111333333333333 -0.3111333333333333 1.2166666666666666 -0.5055333333333333 1.5166666666666666 -0.5833333333333333 0.3 -0.0778 0.6011333333333333 -0.11666666666666665 0.9033333333333333 -0.11666666666666665 0.45333333333333337 0 0.8522 0.09446666666666666 1.1966666666666665 0.2833333333333333 0.3444666666666667 0.18886666666666665 0.6388666666666667 0.4722 0.8833333333333333 0.8499999999999999l1.4 2.2333333333333334c0.37779999999999997 0.5778 0.8278 1.1166666666666667 1.3499999999999999 1.6166666666666665 0.5222 0.5 1.1055333333333333 0.9055333333333333 1.75 1.2166666666666666l-1 1.6999999999999997c-0.6444666666666666 -0.3555333333333333 -1.25 -0.7944666666666667 -1.8166666666666667 -1.3166666666666667 -0.5666666666666667 -0.5222 -1.1166666666666667 -1.15 -1.65 -1.8833333333333333l-1.4333333333333331 5.933333333333334h-4.766666666666667Zm8.433333333333334 6.5c-0.37779999999999997 0 -0.6611333333333334 -0.17779999999999999 -0.8499999999999999 -0.5333333333333333 -0.18886666666666665 -0.3555333333333333 -0.19446666666666668 -0.6888666666666667 -0.016666666666666666 -1l5.333333333333333 -9.299999999999999c0.17779999999999999 -0.37779999999999997 0.4611333333333333 -0.5555333333333333 0.8499999999999999 -0.5333333333333333 0.3888666666666667 0.0222 0.6944666666666667 0.18886666666666665 0.9166666666666666 0.5l5.333333333333333 9.333333333333332c0.19999999999999998 0.3333333333333333 0.19166666666666665 0.6721999999999999 -0.024999999999999998 1.0166666666666666 -0.21666666666666667 0.3444666666666667 -0.5083333333333333 0.5166666666666666 -0.875 0.5166666666666666h-10.666666666666666Zm5.333333333333333 -1.3333333333333333c0.13333333333333333 0 0.25 -0.049999999999999996 0.35 -0.15 0.09999999999999999 -0.09999999999999999 0.15 -0.21666666666666667 0.15 -0.35s-0.049999999999999996 -0.25 -0.15 -0.35c-0.09999999999999999 -0.09999999999999999 -0.21666666666666667 -0.15 -0.35 -0.15s-0.25 0.049999999999999996 -0.35 0.15c-0.09999999999999999 0.09999999999999999 -0.15 0.21666666666666667 -0.15 0.35s0.049999999999999996 0.25 0.15 0.35c0.09999999999999999 0.09999999999999999 0.21666666666666667 0.15 0.35 0.15Zm-0.5 -2.1666666666666665h1V21h-1v5.5Z" stroke-width="0.6667"></path>
</svg>